<svg width="578" height="241" viewBox="0 0 578 241" fill="none" xmlns="http://www.w3.org/2000/svg">
<path fill-rule="evenodd" clip-rule="evenodd" d="M574 4H4V170H574V4ZM0 0V174H578V0H0Z" fill="white"/>
<path d="M548.552 36.5V138H525.062V96.385H478.952V138H455.462V36.5H478.952V76.52H525.062V36.5H548.552Z" fill="white"/>
<path d="M349.425 36.5H372.77V102.62L421.2 36.5H443.24V138H420.04V72.025L371.61 138H349.425V36.5Z" fill="white"/>
<path d="M302.9 36.5C311.89 36.5 319.671 37.9983 326.245 40.995C332.915 43.9917 338.038 48.245 341.615 53.755C345.192 59.265 346.98 65.79 346.98 73.33C346.98 80.7733 345.192 87.2983 341.615 92.905C338.038 98.415 332.915 102.668 326.245 105.665C319.671 108.565 311.89 110.015 302.9 110.015H282.455V138H258.965V36.5H302.9ZM301.595 90.875C308.652 90.875 314.017 89.3767 317.69 86.38C321.363 83.2867 323.2 78.9367 323.2 73.33C323.2 67.6267 321.363 63.2767 317.69 60.28C314.017 57.1867 308.652 55.64 301.595 55.64H282.455V90.875H301.595Z" fill="white"/>
<path d="M224.914 116.25H177.789L168.799 138H144.729L189.969 36.5H213.169L258.554 138H233.904L224.914 116.25ZM217.52 98.415L201.424 59.555L185.329 98.415H217.52Z" fill="white"/>
<path d="M121.98 138L121.835 77.245L91.9652 127.27H81.5252L51.6552 78.405V138H29.6152V36.5H49.0452L87.0352 99.575L124.445 36.5H143.875L144.02 138H121.98Z" fill="white"/>
<path d="M543.323 227.5V240.45H537.323V233H510.473V240.45H504.423L504.473 227.5H505.973C508.173 227.4 509.706 225.783 510.573 222.65C511.473 219.483 512.023 214.967 512.223 209.1L512.623 198H538.273V227.5H543.323ZM517.923 209.7C517.756 214.233 517.39 218.017 516.823 221.05C516.256 224.05 515.356 226.2 514.123 227.5H531.873V203.5H518.173L517.923 209.7Z" fill="white"/>
<path d="M385.401 198H391.801V222.85L410.601 198H416.651V233H410.251V208.2L391.451 233H385.401V198ZM400.951 195.65C397.951 195.65 395.685 195.033 394.151 193.8C392.651 192.567 391.885 190.767 391.851 188.4H396.401C396.435 189.633 396.835 190.583 397.601 191.25C398.368 191.917 399.485 192.25 400.951 192.25C402.385 192.25 403.501 191.917 404.301 191.25C405.135 190.583 405.568 189.633 405.601 188.4H410.101C410.068 190.733 409.268 192.533 407.701 193.8C406.168 195.033 403.918 195.65 400.951 195.65Z" fill="white"/>
<path d="M295.605 227.55V233H269.355V198H294.905V203.45H275.855V212.55H292.755V217.9H275.855V227.55H295.605Z" fill="white"/>
<path d="M165.806 198C168.84 198 171.473 198.5 173.706 199.5C175.973 200.5 177.706 201.933 178.906 203.8C180.106 205.667 180.706 207.883 180.706 210.45C180.706 212.983 180.106 215.2 178.906 217.1C177.706 218.967 175.973 220.4 173.706 221.4C171.473 222.4 168.84 222.9 165.806 222.9H157.906V233H151.406V198H165.806ZM165.506 217.4C168.34 217.4 170.49 216.8 171.956 215.6C173.423 214.4 174.156 212.683 174.156 210.45C174.156 208.217 173.423 206.5 171.956 205.3C170.49 204.1 168.34 203.5 165.506 203.5H157.906V217.4H165.506Z" fill="white"/>
<path d="M63.3002 203.5H51.7002V233H45.2502V203.5H33.7002V198H63.3002V203.5Z" fill="white"/>
</svg>
